<svg xmlns="http://www.w3.org/2000/svg" width="250" height="250" viewBox="0 0 250 250"><path fill="#FFF" d="M54.8 36.951c-5.888-16.643-3.005-28.91 8.013-34.092 10.905-5.129 22.439.49 31.105 15.331 19.758-5.233 39.704-5.509 59.833-.564 3.926-7.636 9.287-13.577 17.845-15.844 4.591-1.215 9.033-.865 13.297 1.273 10.295 5.163 13.228 16.656 8.25 32.572 30.604 23.231 47.965 53.748 49.205 92.513 1.046 32.676-10.05 61.061-32.617 84.71-45.674 47.864-120.334 47.406-166.288 3.305C-7.732 167.044-4.293 79.7 54.8 36.951z"/><path fill="#020304" d="M59.373 43.543l3.086 2.798c-2.589 6.558-5.799 12.67-7.428 19.177-6.073 24.278 4.073 48.839 26.235 63.194 6.228 4.033 13.504 6.435 20.232 9.719 1.127.55 2.405 1.627 2.78 2.741 2.641 7.825 9.501 12.877 18.158 13.09 9.334.229 16.869-4.404 19.641-12.421.745-2.157 1.689-3.204 3.87-2.578 19.508 5.602 34.192 16.748 40.147 36.852 5.636 19.025-2.188 39.703-19.775 51.761-17.795 12.201-37.48 16.957-59.089 13.022-46.094-8.397-80.526-41.129-90.239-87.007-8.978-42.437 8.566-85.746 42.382-110.348z"/><path fill="#231F20" d="M78.092 104.994c.051-10.299 8.641-21.959 18.045-24.842a14.13 14.13 0 0 1 4.024-.621c6.249-.025 9.974 5.455 7.131 11.032-4.131 8.106-8.607 16.046-13.171 23.92-2.479 4.277-5.636 4.663-9.727 1.786-4.071-2.862-6.728-6.461-6.302-11.275zm91.138-.198c.261 6.206-3.319 9.963-8.328 12.604-2.995 1.579-5.645.577-7.301-2.285-2.677-4.627-5.131-9.384-7.721-14.061-1.93-3.485-4.128-6.837-5.844-10.422-2.783-5.815.878-11.242 7.361-11.098 1.455.032 2.957.319 4.339.784 9.186 3.094 17.515 14.809 17.494 24.478zm-35.685 33.237c-2.339 4.599-6.051 7.076-11.093 7.229-5.115.155-8.874-2.201-11.308-7.161 7.574 5.468 14.92 3.33 22.401-.068zm43.571-92.138s-7.634-13.962-21.092-19.386c0 0 .532-8.426 8.644-15.106 0 0 8.867-8.699 19.883-.965 0 0 10.346 8.337 4.922 21.797-.002-.001-3.618 8.939-12.357 13.66zm-106.831.057s7.634-13.962 21.092-19.386c0 0-.532-8.426-8.644-15.106 0 0-8.867-8.699-19.882-.965 0 0-10.346 8.337-4.922 21.797.001.001 3.618 8.94 12.356 13.66z"/></svg>